<svg xmlns="http://www.w3.org/2000/svg" style="display:none">
  <defs>
    <symbol id="i-grid" viewBox="0 0 24 24" fill="none" stroke="currentColor" stroke-width="1.7" stroke-linecap="round" stroke-linejoin="round"><rect x="4" y="4" width="6" height="6" rx="1"></rect><rect x="14" y="4" width="6" height="6" rx="1"></rect><rect x="4" y="14" width="6" height="6" rx="1"></rect><rect x="14" y="14" width="6" height="6" rx="1"></rect></symbol>
    <symbol id="i-pill" viewBox="0 0 24 24" fill="none" stroke="currentColor" stroke-width="1.7" stroke-linecap="round" stroke-linejoin="round"><path d="M9 4.5 19.5 15a4.95 4.95 0 1 1-7 7L2 11.5a4.95 4.95 0 0 1 7-7Z"></path><path d="m6 8 4-4"></path><path d="m8.5 14.5 5-5"></path></symbol>
    <symbol id="i-rx" viewBox="0 0 24 24" fill="none" stroke="currentColor" stroke-width="1.7" stroke-linecap="round" stroke-linejoin="round"><path d="M6 3h9a3 3 0 0 1 3 3v13a2 2 0 0 1-2 2H6a2 2 0 0 1-2-2V5a2 2 0 0 1 2-2Z"></path><path d="M8 7h7M8 11h7M8 15h4"></path></symbol>
    <symbol id="i-layers" viewBox="0 0 24 24" fill="none" stroke="currentColor" stroke-width="1.7" stroke-linecap="round" stroke-linejoin="round"><path d="m12 4 8 4-8 4-8-4 8-4Z"></path><path d="m4 12 8 4 8-4"></path><path d="m4 16 8 4 8-4"></path></symbol>
    <symbol id="i-path" viewBox="0 0 24 24" fill="none" stroke="currentColor" stroke-width="1.7" stroke-linecap="round" stroke-linejoin="round"><circle cx="7" cy="6" r="2.5"></circle><circle cx="17" cy="18" r="2.5"></circle><path d="M9.5 6H13a4 4 0 0 1 4 4v5.5"></path><path d="M17 10 14.5 7.5 17 5"></path></symbol>
    <symbol id="i-spark" viewBox="0 0 24 24" fill="none" stroke="currentColor" stroke-width="1.7" stroke-linecap="round" stroke-linejoin="round"><path d="m12 3 1.7 5.3L19 10l-5.3 1.7L12 17l-1.7-5.3L5 10l5.3-1.7L12 3Z"></path><path d="m19 15 .7 2.3L22 18l-2.3.7L19 21l-.7-2.3L16 18l2.3-.7L19 15Z"></path></symbol>
    <symbol id="i-check" viewBox="0 0 24 24" fill="none" stroke="currentColor" stroke-width="1.7" stroke-linecap="round" stroke-linejoin="round"><path d="m5 12 4 4L19 6"></path></symbol>
    <symbol id="i-wand" viewBox="0 0 24 24" fill="none" stroke="currentColor" stroke-width="1.7" stroke-linecap="round" stroke-linejoin="round"><path d="m4 20 10.5-10.5"></path><path d="m12 4 1-2 1 2 2 1-2 1-1 2-1-2-2-1 2-1Z"></path><path d="m19 8 .7-1.4L21 8l-1.3.7L19 10l-.7-1.3L17 8l1.3-.7L19 6v2Z"></path></symbol>
    <symbol id="i-external" viewBox="0 0 24 24" fill="none" stroke="currentColor" stroke-width="1.7" stroke-linecap="round" stroke-linejoin="round"><path d="M14 5h5v5"></path><path d="M19 5 10 14"></path><path d="M19 13v5a1 1 0 0 1-1 1H6a1 1 0 0 1-1-1V6a1 1 0 0 1 1-1h5"></path></symbol>
    <symbol id="i-search" viewBox="0 0 24 24" fill="none" stroke="currentColor" stroke-width="1.7" stroke-linecap="round" stroke-linejoin="round"><circle cx="11" cy="11" r="6.5"></circle><path d="m16 16 4.5 4.5"></path></symbol>
    <symbol id="i-heart-plain" viewBox="0 0 24 24" fill="none" stroke="currentColor" stroke-width="1.7" stroke-linecap="round" stroke-linejoin="round"><path d="M20 8.5c0 5.5-8 10-8 10s-8-4.5-8-10a4.5 4.5 0 0 1 8-2.8A4.5 4.5 0 0 1 20 8.5Z"></path></symbol>
    <symbol id="i-moon" viewBox="0 0 24 24" fill="none" stroke="currentColor" stroke-width="1.7" stroke-linecap="round" stroke-linejoin="round"><path d="M19 14.2A7.5 7.5 0 0 1 9.8 5 7.5 7.5 0 1 0 19 14.2Z"></path></symbol>
    <symbol id="i-sun" viewBox="0 0 24 24" fill="none" stroke="currentColor" stroke-width="1.7" stroke-linecap="round" stroke-linejoin="round"><circle cx="12" cy="12" r="4"></circle><path d="M12 2v2M12 20v2M4.9 4.9l1.4 1.4M17.7 17.7l1.4 1.4M2 12h2M20 12h2M4.9 19.1l1.4-1.4M17.7 6.3l1.4-1.4"></path></symbol>
    <symbol id="i-settings" viewBox="0 0 24 24" fill="none" stroke="currentColor" stroke-width="1.7" stroke-linecap="round" stroke-linejoin="round"><circle cx="12" cy="12" r="3"></circle><path d="M19.4 15a1.7 1.7 0 0 0 .3 1.9l.1.1-1.8 1.8-.1-.1a1.7 1.7 0 0 0-1.9-.3 1.7 1.7 0 0 0-1 1.6V20h-2.5v-.1a1.7 1.7 0 0 0-1-1.6 1.7 1.7 0 0 0-1.9.3l-.1.1-1.8-1.8.1-.1a1.7 1.7 0 0 0 .3-1.9 1.7 1.7 0 0 0-1.6-1H5.5v-2.5h.1a1.7 1.7 0 0 0 1.6-1 1.7 1.7 0 0 0-.3-1.9l-.1-.1 1.8-1.8.1.1a1.7 1.7 0 0 0 1.9.3 1.7 1.7 0 0 0 1-1.6V5h2.5v.1a1.7 1.7 0 0 0 1 1.6 1.7 1.7 0 0 0 1.9-.3l.1-.1 1.8 1.8-.1.1a1.7 1.7 0 0 0-.3 1.9 1.7 1.7 0 0 0 1.6 1h.1v2.5h-.1a1.7 1.7 0 0 0-1.6 1Z"></path></symbol>

    <symbol id="i-allergy" viewBox="0 0 24 24" fill="none" stroke="currentColor" stroke-width="1.7" stroke-linecap="round" stroke-linejoin="round"><path d="M12 3c2.2 3.1 5.2 5.5 5.2 9.4A5.2 5.2 0 1 1 6.8 12.4C6.8 9 10.2 6.5 12 3Z"></path><path d="M9.5 14.5c1 .9 2.1 1.4 3.5 1.4 1.1 0 2-.3 2.9-1"></path></symbol>
    <symbol id="i-heart" viewBox="0 0 24 24" fill="none" stroke="currentColor" stroke-width="1.7" stroke-linecap="round" stroke-linejoin="round"><path d="M3.5 12h4l2-5 4 10 2-5h5"></path><path d="M6 4.5C4 4.5 3 6 3 7.7 3 13 12 19 12 19s9-6 9-11.3c0-1.7-1-3.2-3-3.2-2.2 0-3.5 2.2-6 4.6-2.5-2.4-3.8-4.6-6-4.6Z"></path></symbol>
    <symbol id="i-skin" viewBox="0 0 24 24" fill="none" stroke="currentColor" stroke-width="1.7" stroke-linecap="round" stroke-linejoin="round"><path d="M8 4c2.2 0 3.7 1.5 4 4 .3-2.5 1.8-4 4-4 2.2 0 4 1.8 4 4 0 6.5-5.7 10.3-8 12-2.3-1.7-8-5.5-8-12 0-2.2 1.8-4 4-4Z"></path><path d="M8 10h8M7 13h10M9 16h6"></path></symbol>
    <symbol id="i-gastro" viewBox="0 0 24 24" fill="none" stroke="currentColor" stroke-width="1.7" stroke-linecap="round" stroke-linejoin="round"><path d="M9 4v5c0 1.7 1.3 3 3 3h1c2.2 0 4-1.8 4-4V5"></path><path d="M12 12v3.5c0 2.5-1.5 4.5-4 4.5"></path><path d="M17 8c0 5 1.5 6 2 8 .5 2-1 3-3 3"></path></symbol>
    <symbol id="i-blood" viewBox="0 0 24 24" fill="none" stroke="currentColor" stroke-width="1.7" stroke-linecap="round" stroke-linejoin="round"><path d="M12 3s6 6.3 6 11a6 6 0 1 1-12 0c0-4.7 6-11 6-11Z"></path><path d="M9 15c.6 1.3 1.6 2 3 2 1.1 0 2.1-.4 3-1.2"></path></symbol>
    <symbol id="i-virus" viewBox="0 0 24 24" fill="none" stroke="currentColor" stroke-width="1.7" stroke-linecap="round" stroke-linejoin="round"><circle cx="12" cy="12" r="5"></circle><path d="M12 2v3M12 19v3M2 12h3M19 12h3M4.9 4.9 7 7M17 17l2.1 2.1M19.1 4.9 17 7M7 17l-2.1 2.1"></path><circle cx="10" cy="11" r="1"></circle><circle cx="14" cy="13" r="1"></circle></symbol>
    <symbol id="i-brain" viewBox="0 0 24 24" fill="none" stroke="currentColor" stroke-width="1.7" stroke-linecap="round" stroke-linejoin="round"><path d="M9.5 5.2A3.2 3.2 0 0 0 6 8.3 3.4 3.4 0 0 0 3.8 11.5 3.3 3.3 0 0 0 6 14.7 3.3 3.3 0 0 0 9.4 19a3.7 3.7 0 0 0 2.6-1.2A3.7 3.7 0 0 0 14.6 19a3.3 3.3 0 0 0 3.4-4.3 3.3 3.3 0 0 0 2.2-3.2A3.4 3.4 0 0 0 18 8.3a3.2 3.2 0 0 0-3.5-3.1A3.7 3.7 0 0 0 12 6.4a3.7 3.7 0 0 0-2.5-1.2Z"></path><path d="M12 6.5v11M8.5 9.5c1 0 1.7.6 1.7 1.6M15.5 9.5c-1 0-1.7.6-1.7 1.6M8.5 14.3c1 0 1.7-.6 1.7-1.6M15.5 14.3c-1 0-1.7-.6-1.7-1.6"></path></symbol>
    <symbol id="i-eye" viewBox="0 0 24 24" fill="none" stroke="currentColor" stroke-width="1.7" stroke-linecap="round" stroke-linejoin="round"><path d="M2.5 12s3.3-6 9.5-6 9.5 6 9.5 6-3.3 6-9.5 6-9.5-6-9.5-6Z"></path><circle cx="12" cy="12" r="2.5"></circle></symbol>
    <symbol id="i-bone" viewBox="0 0 24 24" fill="none" stroke="currentColor" stroke-width="1.7" stroke-linecap="round" stroke-linejoin="round"><path d="M7.5 4.5a2.8 2.8 0 1 0 0 5.2L14.3 16a2.8 2.8 0 1 0 4.2 3.5 2.8 2.8 0 0 0-1-4.2L10.8 8.5a2.8 2.8 0 1 0-3.3-4Z"></path><path d="m9 7 8 8"></path></symbol>
    <symbol id="i-ear" viewBox="0 0 24 24" fill="none" stroke="currentColor" stroke-width="1.7" stroke-linecap="round" stroke-linejoin="round"><path d="M15.5 8a4.5 4.5 0 0 0-8.8 1.3c0 2.8 2 3.6 2 5.8 0 1.2-.8 2-1.7 2"></path><path d="M13.5 10.5c0 2-1.5 2.5-2 4"></path><circle cx="8.5" cy="18" r="1.2"></circle></symbol>
    <symbol id="i-child" viewBox="0 0 24 24" fill="none" stroke="currentColor" stroke-width="1.7" stroke-linecap="round" stroke-linejoin="round"><circle cx="12" cy="7" r="3"></circle><path d="M7 21v-4.5a5 5 0 0 1 10 0V21M5 12h3M16 12h3M9 3.5c.8-1 1.8-1.5 3-1.5s2.2.5 3 1.5"></path></symbol>
    <symbol id="i-psy" viewBox="0 0 24 24" fill="none" stroke="currentColor" stroke-width="1.7" stroke-linecap="round" stroke-linejoin="round"><path d="M4 6.5h10a4 4 0 0 1 4 4v3a4 4 0 0 1-4 4H9l-5 3v-3.7a4 4 0 0 1-2-3.3v-3a4 4 0 0 1 4-4Z"></path><path d="M8 11v3M6.5 12.5h3M13 11h.1M15.5 11h.1"></path></symbol>
    <symbol id="i-lung" viewBox="0 0 24 24" fill="none" stroke="currentColor" stroke-width="1.7" stroke-linecap="round" stroke-linejoin="round"><path d="M11.8 5v14M11.8 10c-2-3.6-4.4-5.2-6-5.2-.6 2.1-1.2 4.8-2.8 7.8-1 2 .4 5.2 3.1 5.2 2.9 0 4.4-3.2 5.7-6.2Z"></path><path d="M12.2 10c2-3.6 4.4-5.2 6-5.2.6 2.1 1.2 4.8 2.8 7.8 1 2-.4 5.2-3.1 5.2-2.9 0-4.4-3.2-5.7-6.2Z"></path></symbol>
    <symbol id="i-symptoms" viewBox="0 0 24 24" fill="none" stroke="currentColor" stroke-width="1.7" stroke-linecap="round" stroke-linejoin="round"><path d="M3 12h3l2-6 4 12 2-6h7"></path><circle cx="19" cy="7" r="2"></circle></symbol>
    <symbol id="i-kidney" viewBox="0 0 24 24" fill="none" stroke="currentColor" stroke-width="1.7" stroke-linecap="round" stroke-linejoin="round"><path d="M9.5 5.5c-3.2-1.7-6 1-6 5 0 4.6 3 8 6 8 2 0 3.3-1.3 3.3-3.2V9.8c0-2.1-1.1-3.5-3.3-4.3Z"></path><path d="M14.5 5.5c3.2-1.7 6 1 6 5 0 4.6-3 8-6 8-2 0-3.3-1.3-3.3-3.2V9.8c0-2.1 1.1-3.5 3.3-4.3Z"></path><path d="M12 10v7"></path></symbol>
    <symbol id="i-vein" viewBox="0 0 24 24" fill="none" stroke="currentColor" stroke-width="1.7" stroke-linecap="round" stroke-linejoin="round"><path d="M7 3v6c0 2 1 3 2.2 4S11 15 11 17v4M17 3v6c0 2-1 3-2.2 4S13 15 13 17v4"></path><path d="M5 5h4M15 5h4"></path></symbol>
    <symbol id="i-vitamins" viewBox="0 0 24 24" fill="none" stroke="currentColor" stroke-width="1.7" stroke-linecap="round" stroke-linejoin="round"><path d="M8 4h8v4H8zM6 8h12v12H6z"></path><path d="M9 12h6M12 9v6"></path></symbol>
    <symbol id="i-woman" viewBox="0 0 24 24" fill="none" stroke="currentColor" stroke-width="1.7" stroke-linecap="round" stroke-linejoin="round"><circle cx="12" cy="7" r="3"></circle><path d="M12 10v4M8 21l2-7h4l2 7M9 18h6"></path></symbol>
    <symbol id="i-chevron" viewBox="0 0 24 24" fill="none" stroke="currentColor" stroke-width="1.7" stroke-linecap="round" stroke-linejoin="round"><path d="m14 7-5 5 5 5"></path></symbol>
  </defs>
</svg>